<svg width="255" height="40" viewBox="0 0 255 40" fill="none" xmlns="http://www.w3.org/2000/svg">
<path d="M81.8649 0.000696494L77.9764 14.572H69.8277L72.9609 2.82324H68.8185L65.6811 14.572H57.4907L61.3831 0.000696494H81.8649ZM102.058 6.4269C101.857 7.1516 101.573 7.75477 101.201 8.23256C100.833 8.7107 100.415 9.08994 99.9525 9.37098C99.4897 9.65167 99.0004 9.8526 98.4843 9.97762C97.9685 10.0992 97.4751 10.1598 97.0007 10.1598H89.1102L87.9226 14.5717H79.8423L83.7308 0.000348247H100.081C100.37 0.000348247 100.688 0.0344765 101.033 0.106564C101.382 0.178651 101.701 0.300189 101.989 0.474661C102.281 0.649132 102.524 0.891861 102.718 1.20285C102.915 1.51383 103.014 1.90839 103.014 2.39037C103.014 2.70901 102.949 3.09975 102.824 3.55874L102.058 6.42655L102.058 6.4269ZM94.7667 3.64615C94.8197 3.49048 94.8538 3.3578 94.8653 3.24775C94.8803 3.13387 94.8879 3.03149 94.8879 2.93677C94.8879 2.72817 94.8273 2.58399 94.7058 2.50807C94.5846 2.42833 94.3798 2.39072 94.0873 2.39072H91.1777L89.7663 7.64855H92.5205C92.9151 7.64855 93.2261 7.5688 93.4615 7.40965C93.6927 7.25015 93.8825 6.9127 94.0229 6.40461L94.7664 3.64649L94.7667 3.64615ZM105.059 14.5717C104.088 14.5717 103.386 14.3669 102.953 13.9532C102.521 13.5437 102.305 12.967 102.305 12.227C102.305 11.7453 102.377 11.2292 102.524 10.6832L105.37 0.000348247H113.295L110.317 11.2028C110.271 11.3661 110.248 11.5026 110.248 11.6161C110.248 11.9351 110.483 12.0943 110.95 12.0943L114.118 11.9275L117.308 0.000348247H125.499L121.61 14.5717H113.34L113.507 13.9609L105.059 14.5717ZM136.121 8.16813C136.258 7.65969 136.25 7.32224 136.102 7.16309C135.954 7.0036 135.681 6.9242 135.29 6.9242H132.532L131.121 12.182H134.034C134.323 12.182 134.547 12.1441 134.71 12.0647C134.873 11.9888 135.013 11.8446 135.123 11.6398C135.172 11.5413 135.222 11.4389 135.267 11.3288C135.312 11.2149 135.347 11.0823 135.377 10.9266L136.121 8.16848L136.121 8.16813ZM122.384 14.5717L126.33 0.000348247H142.513L141.88 2.413H133.776L133.234 4.41194H141.124C141.599 4.41194 142.058 4.47254 142.509 4.59791C142.956 4.7191 143.336 4.92038 143.647 5.20107C143.958 5.48594 144.171 5.86518 144.284 6.34297C144.402 6.82111 144.36 7.4201 144.17 8.14863L143.389 11.013C143.271 11.4758 143.127 11.8627 142.956 12.1813C142.699 12.663 142.387 13.0614 142.023 13.3727C141.659 13.6837 141.287 13.9264 140.9 14.097C140.517 14.2715 140.13 14.3969 139.747 14.4651C139.36 14.5372 139.022 14.5714 138.734 14.5714H122.383L122.384 14.5717ZM166.755 10.2924C166.584 10.9297 166.371 11.5099 166.113 12.0337C165.859 12.5533 165.541 13.0011 165.158 13.3765C164.778 13.7519 164.327 14.0445 163.803 14.2565C163.28 14.4651 162.658 14.5714 161.929 14.5714H148.337C147.976 14.5714 147.62 14.5372 147.271 14.4728C146.922 14.4045 146.618 14.2872 146.36 14.12C146.102 13.9532 145.89 13.7178 145.731 13.4145C145.571 13.1108 145.492 12.7166 145.492 12.227C145.492 11.6617 145.594 11.0168 145.791 10.2924L147.404 4.30224C147.559 3.75967 147.753 3.23243 147.976 2.7125C148.204 2.19291 148.5 1.73392 148.871 1.33553C149.243 0.933302 149.702 0.611174 150.248 0.368097C150.798 0.121538 151.466 0 152.252 0H165.821C167.703 0 168.644 0.811764 168.644 2.43529C168.644 2.95105 168.553 3.57719 168.367 4.3019L166.755 10.2921V10.2924ZM160.309 3.36894C160.34 3.22094 160.351 3.11472 160.351 3.05796C160.351 2.64041 160.055 2.43564 159.463 2.43564H157.286C156.573 2.43564 156.125 2.74662 155.939 3.36894L153.849 11.2254C153.822 11.3734 153.807 11.4834 153.807 11.5479C153.807 11.9574 154.099 12.1587 154.683 12.1587H156.872C157.585 12.1587 158.033 11.8477 158.219 11.2254L160.309 3.36894ZM189.281 6.42655C189.08 7.15125 188.796 7.75442 188.424 8.23221C188.056 8.71035 187.638 9.08959 187.175 9.37063C186.713 9.65132 186.223 9.85226 185.707 9.97728C185.192 10.0988 184.698 10.1594 184.224 10.1594H176.333L175.146 14.5714H167.065L170.954 0H187.304C187.593 0 187.911 0.0341282 188.256 0.106215C188.605 0.178302 188.924 0.299841 189.212 0.474312C189.504 0.648784 189.747 0.891512 189.941 1.2025C190.138 1.51348 190.237 1.90805 190.237 2.39002C190.237 2.70867 190.172 3.0994 190.047 3.55839L189.281 6.4262L189.281 6.42655ZM181.99 3.6458C182.043 3.49013 182.077 3.35745 182.088 3.2474C182.103 3.13353 182.111 3.03114 182.111 2.93642C182.111 2.72782 182.05 2.58364 181.929 2.50773C181.808 2.42798 181.603 2.39037 181.31 2.39037H178.401L176.989 7.6482H179.744C180.138 7.6482 180.449 7.56845 180.684 7.4093C180.916 7.24981 181.106 6.91236 181.246 6.40426L181.989 3.64615L181.99 3.6458ZM201.151 14.5714L202.82 8.3346H198.674L197.005 14.5714H188.814L192.707 0H200.897L199.33 5.85751H203.473L205.044 0H213.188L209.3 14.5714H201.151ZM220.457 14.5714L220.343 12.003H214.812L213.241 14.5714H210.464L219.045 0H228.491L229.015 14.5714H220.457ZM220.256 2.75812L216.409 9.40476H220.301L220.256 2.75812H220.256ZM230.093 14.5714L234.16 9.49182C233.784 9.34382 233.488 9.14671 233.272 8.90398C233.056 8.65742 232.9 8.3844 232.805 8.08072C232.71 7.77705 232.669 7.45458 232.688 7.11329C232.707 6.77201 232.756 6.44187 232.839 6.12323L233.526 3.55874C233.61 3.19482 233.739 2.84553 233.917 2.51191C234.182 2.02227 234.501 1.62005 234.873 1.30175C235.245 0.983101 235.632 0.72505 236.041 0.527594C236.447 0.334317 236.849 0.193974 237.244 0.118056C237.642 0.0383072 237.991 0.000696494 238.295 0.000696494H254.543L250.556 14.572H242.475L243.765 9.81499H242.608L238.894 14.572H230.093L230.093 14.5714ZM240.874 6.08109C240.639 6.94614 240.912 7.37866 241.697 7.37866H244.432L245.798 2.39002H243.086C242.782 2.39002 242.524 2.43529 242.308 2.53036C242.092 2.6216 241.91 2.80339 241.762 3.08024C241.659 3.27004 241.583 3.4675 241.542 3.66843L240.874 6.08109ZM81.6632 40C83.0935 40 84.2504 39.6928 85.1307 39.0782C86.0146 38.4635 86.6369 37.4811 87.0012 36.1306L88.8222 29.298C88.9548 28.7635 89.0231 28.293 89.0231 27.8869C89.0231 27.0334 88.7309 26.4114 88.1431 26.0165C87.5587 25.6258 86.6978 25.4286 85.5674 25.4286H65.4496C64.0193 25.4286 62.8624 25.7358 61.9824 26.3505C61.0986 26.9651 60.4762 27.9475 60.1158 29.298L58.291 36.1306C58.1583 36.6652 58.0901 37.1357 58.0901 37.5456C58.0901 38.3953 58.3857 39.0176 58.9701 39.4122C59.5544 39.8029 60.4156 40 61.5499 40H81.6636H81.6632ZM68.4501 37.5873H67.6498C67.0731 37.5873 66.7809 37.3599 66.7809 36.9006C66.7809 36.692 66.8304 36.4378 66.9251 36.1306L68.7388 29.298C68.8791 28.7858 69.0612 28.4142 69.2771 28.1868C69.4972 27.9552 69.8274 27.8417 70.2714 27.8417H71.049L68.4504 37.5873H68.4501ZM79.463 27.8417C80.0435 27.8417 80.3315 28.0691 80.3315 28.5319C80.3315 28.7367 80.2824 28.9947 80.1874 29.298L78.3741 36.1306C78.2337 36.6429 78.0554 37.0145 77.8353 37.2419C77.6156 37.4735 77.2854 37.587 76.8414 37.587H76.0941L78.6965 27.8413H79.463V27.8417ZM97.9152 40L97.8014 37.4317H92.2701L90.6996 40H87.9226L96.5038 25.4286H105.95L106.474 40H97.9152ZM97.7143 28.1868L93.8676 34.8334H97.7599L97.7146 28.1868H97.7143ZM120.154 33.5964C120.29 33.088 120.283 32.7505 120.134 32.5914C119.986 32.4319 119.713 32.3525 119.323 32.3525H116.565L115.153 37.6103H118.067C118.355 37.6103 118.579 37.5724 118.742 37.493C118.905 37.4171 119.045 37.2729 119.156 37.0681C119.205 36.9696 119.254 36.8672 119.3 36.7571C119.345 36.6432 119.379 36.5106 119.41 36.3549L120.153 33.5968L120.154 33.5964ZM106.417 40L110.362 25.4286H126.546L125.912 27.8413H117.809L117.266 29.8402H125.157C125.631 29.8402 126.09 29.9008 126.541 30.0262C126.989 30.1474 127.369 30.3487 127.68 30.6294C127.991 30.9142 128.203 31.2935 128.317 31.7713C128.435 32.2494 128.393 32.8484 128.203 33.5769L127.422 36.4413C127.304 36.9041 127.16 37.291 126.989 37.6096C126.731 38.0913 126.42 38.4897 126.056 38.801C125.691 39.112 125.319 39.3547 124.933 39.5253C124.55 39.6998 124.162 39.8252 123.779 39.8934C123.392 39.9655 123.055 39.9997 122.766 39.9997H106.416L106.417 40ZM150.92 31.8549C150.719 32.5796 150.434 33.1827 150.062 33.6605C149.694 34.1387 149.277 34.5179 148.814 34.7989C148.351 35.0796 147.862 35.2806 147.346 35.4056C146.83 35.5271 146.337 35.5877 145.862 35.5877H137.972L136.784 39.9997H128.704L132.592 25.4283H148.943C149.231 25.4283 149.549 25.4624 149.895 25.5345C150.244 25.6066 150.563 25.7281 150.851 25.9026C151.143 26.0771 151.385 26.3198 151.579 26.6308C151.777 26.9418 151.875 27.3363 151.875 27.8183C151.875 28.137 151.811 28.5277 151.685 28.9867L150.919 31.8545L150.92 31.8549ZM143.628 29.0741C143.681 28.9184 143.715 28.7858 143.727 28.6757C143.742 28.5618 143.749 28.4594 143.749 28.3647C143.749 28.1561 143.689 28.0119 143.567 27.936C143.446 27.8563 143.241 27.8187 142.949 27.8187H140.039L138.628 33.0765H141.382C141.777 33.0765 142.088 32.9968 142.323 32.8376C142.554 32.6781 142.744 32.3407 142.884 31.8326L143.628 29.0744L143.628 29.0741ZM153.92 39.9997C152.949 39.9997 152.247 39.7949 151.815 39.3812C151.382 38.9716 151.166 38.3949 151.166 37.6549C151.166 37.1733 151.238 36.6572 151.386 36.1111L154.231 25.4283H162.156L159.178 36.6307C159.133 36.794 159.11 36.9306 159.11 37.0441C159.11 37.3631 159.345 37.5222 159.812 37.5222L162.979 37.3554L166.17 25.4283H174.36L170.472 39.9997H162.202L162.368 39.3888L153.92 39.9997ZM184.607 39.9997L183.272 34.0095L181.538 35.197L180.259 39.9997H172.069L175.961 25.4283H184.152L182.429 31.9193L192.141 25.4283H195.855L190.874 28.8425L193.465 39.9997H184.607H184.607ZM203.412 39.9997L203.298 37.4313H197.767L196.196 39.9997H193.419L202 25.4283H211.447L211.97 39.9997H203.412ZM203.211 28.1864L199.364 34.8331H203.256L203.211 28.1864H203.211Z" fill="#2B2A29"/>
<path fill-rule="evenodd" clip-rule="evenodd" d="M20.4974 0C31.497 0 40.4138 8.91688 40.4138 19.9165C40.4138 30.916 31.497 39.8329 20.4974 39.8329C9.64775 39.8329 0.825089 31.1572 0.58667 20.3648C5.19201 14.8116 9.74966 11.228 20.8427 7.83553C25.8818 6.29427 11.4893 5.54055 2.09563 12.2882C5.08933 5.0741 12.2004 0 20.4977 0H20.4974Z" fill="#FFF72C"/>
</svg>
