<svg width="229" height="70" viewBox="0 0 229 70" fill="none" xmlns="http://www.w3.org/2000/svg">
<g clip-path="url(#clip0_137_267)">
<path fill-rule="evenodd" clip-rule="evenodd" d="M5.25195 33.5227L9.81962 32.4354C9.71198 33.305 9.71198 34.1635 9.821 35.0096L5.25195 33.5227Z" fill="#B90000"/>
<path fill-rule="evenodd" clip-rule="evenodd" d="M20.4758 48.3879L26.6277 42.3175C25.3885 43.0658 24.0416 43.7052 22.7183 43.7782C22.2118 45.5849 21.4225 47.0126 20.4758 48.3879Z" fill="#B90000"/>
<path fill-rule="evenodd" clip-rule="evenodd" d="M20.4551 18.783L26.6166 24.8437C25.376 24.0968 24.0292 23.4601 22.7044 23.3898C22.1938 21.586 21.4017 20.1583 20.4551 18.783Z" fill="#B90000"/>
<path fill-rule="evenodd" clip-rule="evenodd" d="M20.5101 27.236C23.5985 27.2346 26.1901 29.3871 26.7917 32.237L25.5263 33.6936L26.6813 35.2095C25.9182 37.8333 23.4439 39.7667 20.5212 39.7681C17.2534 39.7708 14.5418 37.3579 14.1568 34.2586L16.529 34.2572C16.8919 36.0873 18.5451 37.4764 20.5212 37.475C21.9205 37.4736 23.1569 36.7763 23.8869 35.718C23.9297 35.0151 23.7696 35.1612 23.3915 34.9325L18.8694 34.9352L18.868 32.4092C20.379 32.4079 21.8915 32.4079 23.4025 32.4065C23.9007 32.2797 24.1477 32.1474 24.0801 31.5934C23.3874 30.3628 22.0474 29.5277 20.5157 29.5291C18.4029 29.5305 16.6614 31.1221 16.4738 33.141L14.1223 33.1424C14.31 29.8584 17.1058 27.2387 20.5101 27.236Z" fill="#B90000"/>
<path fill-rule="evenodd" clip-rule="evenodd" d="M20.5282 23.8653C25.6879 23.8611 29.9451 27.7693 30.3577 32.7166H28.5941C28.1898 28.7188 24.7219 25.5796 20.531 25.5823C16.071 25.5851 12.4361 29.1446 12.4389 33.5062C12.443 37.8691 16.0834 41.4218 20.5434 41.419C24.4487 41.4163 27.7219 38.6863 28.4726 35.0772L30.2583 35.0758C29.4855 39.6358 25.4216 43.1333 20.5448 43.1361C15.1174 43.1402 10.6877 38.8145 10.6836 33.5062C10.6767 28.2006 15.1008 23.8694 20.5282 23.8653Z" fill="#B90000"/>
<path fill-rule="evenodd" clip-rule="evenodd" d="M20.5089 13.4581L40.9641 33.5282L20.5393 53.7237L0 33.5585L20.5089 13.4581ZM20.5145 15.9552L2.44805 33.5572L20.5421 51.1316L38.4291 33.531L20.5145 15.9552Z" fill="#B90000"/>
<path fill-rule="evenodd" clip-rule="evenodd" d="M195.937 46.781C181.849 51.8054 164.793 56.506 145.613 60.4335C81.8107 73.4865 18.0719 73.1406 3.7189 59.6618C-1.01159 55.2244 0.198631 49.901 6.20283 44.295C3.44705 47.7939 3.07032 51.1688 5.47421 54.2377C16.0061 67.6876 75.9652 70.3266 138.958 60.1069C160.858 56.557 180.315 51.9047 195.937 46.781Z" fill="#B90000"/>
<path fill-rule="evenodd" clip-rule="evenodd" d="M37.4121 23.5924C51.2131 18.4881 67.9202 13.7117 86.7097 9.72085C149.211 -3.54161 211.65 -3.18883 225.71 10.505C230.344 15.014 229.159 20.4229 223.276 26.117C225.975 22.563 226.345 19.1344 223.991 16.0158C213.673 2.3496 154.938 -0.332107 93.23 10.053C71.7772 13.6593 52.7158 18.3861 37.4121 23.5924Z" fill="#B90000"/>
<path fill-rule="evenodd" clip-rule="evenodd" d="M60.5029 56.9663L61.7476 57.2268C61.4868 58.0702 61.0162 58.7151 60.3414 59.1588C59.6625 59.6026 58.8359 59.823 57.8561 59.823C56.8432 59.823 56.0208 59.6522 55.386 59.3118C54.7512 58.97 54.2682 58.4767 53.9371 57.8304C53.6072 57.1827 53.4417 56.4881 53.4417 55.7467C53.4417 54.9378 53.6279 54.2309 54.0019 53.6287C54.3759 53.0251 54.9072 52.5689 55.5985 52.2547C56.2885 51.9419 57.0475 51.7862 57.8755 51.7862C58.8152 51.7862 59.6045 51.9833 60.2462 52.3801C60.8865 52.7756 61.3336 53.3324 61.5848 54.0504L60.3621 54.2888C60.1427 53.7224 59.8295 53.3117 59.4127 53.0526C59.0001 52.7936 58.4785 52.6654 57.8479 52.6654C57.1275 52.6654 56.5245 52.8087 56.0387 53.094C55.553 53.382 55.2121 53.7651 55.0176 54.2474C54.8202 54.7297 54.7222 55.2272 54.7222 55.7385C54.7222 56.3999 54.8382 56.976 55.07 57.4693C55.3046 57.9627 55.6648 58.3306 56.1588 58.5759C56.6501 58.8198 57.1813 58.9411 57.7554 58.9411C58.4509 58.9411 59.0401 58.7743 59.5231 58.4436C60.0061 58.1143 60.3318 57.6209 60.5029 56.9663ZM63.6285 59.6921V51.9199H65.5011L67.7242 57.4238C67.9298 57.9351 68.0803 58.3182 68.1727 58.5745C68.2803 58.292 68.4459 57.8758 68.6736 57.3274L70.9216 51.9199H72.5955V59.6921H71.3963V53.1877L68.6667 59.6921H67.5448L64.8277 53.0774V59.6921H63.6285ZM74.7593 55.9066C74.7593 54.6154 75.1774 53.6066 76.015 52.8776C76.8526 52.1486 77.9332 51.7834 79.2593 51.7834C80.1245 51.7834 80.9083 51.9557 81.6038 52.2975C82.2993 52.642 82.832 53.1188 83.1963 53.732C83.562 54.3439 83.7428 55.0398 83.7428 55.817C83.7428 56.6053 83.5524 57.3108 83.1673 57.9323C82.7823 58.5552 82.2372 59.0251 81.5335 59.3449C80.8269 59.6646 80.0666 59.8244 79.2524 59.8244C78.3651 59.8244 77.5771 59.6494 76.8816 59.2939C76.1834 58.9411 75.6562 58.4588 75.2988 57.8469C74.9386 57.2364 74.7593 56.5887 74.7593 55.9066ZM76.0412 55.9231C76.0412 56.8602 76.3448 57.5975 76.9534 58.1363C77.5633 58.6765 78.3264 58.9452 79.2469 58.9452C80.1825 58.9452 80.9525 58.6737 81.5555 58.1294C82.16 57.5851 82.4636 56.812 82.4636 55.8115C82.4636 55.1804 82.3325 54.6278 82.073 54.1551C81.815 53.6824 81.4369 53.3172 80.9415 53.0568C80.4419 52.7977 79.8844 52.6682 79.2648 52.6682C78.383 52.6682 77.6268 52.9176 76.9934 53.4192C76.3586 53.9181 76.0412 54.7545 76.0412 55.9231ZM86.4213 51.9199H92.3054V59.6921H91.0607V52.8377H87.666V56.8395C87.666 57.6526 87.6205 58.2479 87.528 58.6255C87.4356 59.0031 87.241 59.298 86.9484 59.5088C86.6531 59.7183 86.2791 59.823 85.8265 59.823C85.5533 59.823 85.2235 59.7817 84.8398 59.6963L85.0496 58.7854C85.2552 58.8556 85.4305 58.8929 85.5767 58.8929C85.8583 58.8929 86.068 58.8047 86.2101 58.6296C86.3509 58.4546 86.4199 58.0426 86.4199 57.3921V51.9199H86.4213ZM94.9149 59.6921V51.9199H101.707V52.8377H96.1569V55.2176H101.355V56.1298H96.1569V58.7743H101.925V59.6921H94.9149ZM104.216 59.6921V51.9199H105.462V55.1128H110.344V51.9199H111.588V59.6921H110.344V56.0292H105.462V59.6921H104.216ZM120.897 56.9663L122.142 57.2268C121.881 58.0702 121.41 58.7151 120.734 59.1588C120.056 59.6039 119.228 59.8244 118.249 59.8244C117.236 59.8244 116.413 59.6535 115.779 59.3132C115.145 58.9714 114.661 58.4781 114.331 57.8317C114.001 57.1841 113.836 56.4895 113.836 55.7481C113.836 54.9392 114.022 54.2323 114.394 53.63C114.768 53.0265 115.3 52.5703 115.991 52.2561C116.681 51.9433 117.44 51.7876 118.268 51.7876C119.209 51.7876 119.998 51.9846 120.64 52.3815C121.28 52.777 121.728 53.3338 121.979 54.0517L120.756 54.2901C120.537 53.7238 120.222 53.3131 119.807 53.054C119.394 52.7949 118.874 52.6668 118.243 52.6668C117.521 52.6668 116.92 52.8101 116.434 53.0954C115.948 53.3834 115.607 53.7665 115.413 54.2488C115.214 54.7311 115.118 55.2286 115.118 55.7399C115.118 56.4013 115.233 56.9774 115.465 57.4707C115.7 57.964 116.06 58.332 116.553 58.5773C117.044 58.8212 117.577 58.9425 118.149 58.9425C118.845 58.9425 119.434 58.7757 119.917 58.445C120.4 58.1143 120.726 57.6209 120.897 56.9663ZM124.228 51.9199H125.47V55.3237C126.04 55.3237 126.437 55.2341 126.669 55.0508C126.9 54.8675 127.195 54.4307 127.554 53.7375C127.815 53.229 128.028 52.8694 128.2 52.6599C128.368 52.4504 128.608 52.2727 128.918 52.1293C129.232 51.986 129.574 51.9144 129.951 51.9144C130.43 51.9144 130.681 51.9185 130.708 51.9254V52.8156C130.664 52.8156 130.581 52.8142 130.456 52.8101C130.321 52.8073 130.238 52.8046 130.207 52.8046C129.809 52.8046 129.516 52.8845 129.323 53.043C129.125 53.2029 128.901 53.5419 128.649 54.0614C128.333 54.7187 128.067 55.1321 127.848 55.3044C127.628 55.4739 127.369 55.6117 127.067 55.7151C127.672 55.8529 128.271 56.3159 128.861 57.1028L130.797 59.6894H129.252L127.682 57.5796C127.25 56.9966 126.887 56.597 126.599 56.3779C126.309 56.1602 125.932 56.0527 125.47 56.0527V59.6894H124.228V51.9199Z" fill="#B90000"/>
<path fill-rule="evenodd" clip-rule="evenodd" d="M58.2688 45.4981H51.9348L52.2743 38.481H49.2232L47.6818 45.4981H41.3491L48.2613 19.0875H58.4316L58.2688 45.4981ZM52.4316 35.5746L53.0953 22.3315H52.7255L49.8428 35.5746H52.4316ZM71.8393 45.4981H66.6424L67.9768 35.5319H66.3429L65.0085 45.4981H59.8116L62.6515 24.2925H67.8485L66.6562 33.1989H68.2887L69.4823 24.2925H74.6793L71.8393 45.4981ZM86.9664 45.4981L87.0961 24.2925H78.9309L73.3821 45.4981H78.4672L79.7037 39.8632H82.1531L81.8813 45.4981H86.9664ZM82.2801 37.5301H80.2018L82.5174 26.8984H82.8141L82.2801 37.5301ZM101.35 45.4981H96.1528L98.6809 26.6255H97.0097L94.9895 41.7112C94.8404 42.8219 94.5576 43.6391 94.1408 44.1655C93.4274 45.0543 92.2544 45.4981 90.6219 45.4981H87.8385L88.1504 43.165H88.6693C88.9177 43.165 89.144 43.0892 89.3496 42.9376C89.5552 42.786 89.6863 42.5077 89.7401 42.1053L92.1261 24.2925H104.19L101.35 45.4981ZM116.289 45.4981L119.129 24.2925H113.932L110.365 34.8649H110.179L111.595 24.2925H106.398L103.558 45.4981H108.755L112.323 34.9256H112.509L111.094 45.4981H116.289ZM131.79 26.6255H128.673L126.145 45.4981H120.948L123.476 26.6255H120.359L120.672 24.2925H132.105L131.79 26.6255ZM142.83 45.4981L145.67 24.2925H133.643L130.804 45.4981H136L138.529 26.6255H140.162L137.634 45.4981H142.83ZM158.538 34.5011C158.394 35.5719 158.099 36.3905 157.652 36.9555C156.939 37.8443 155.778 38.2881 154.17 38.2881H151.201L150.235 45.4981H145.038L147.878 24.2925H156.044C157.653 24.2925 158.694 24.7376 159.17 25.625C159.468 26.1708 159.544 26.9879 159.398 28.0794L158.538 34.5011ZM153.289 34.8953L154.255 27.6866C154.348 26.9797 154.075 26.6255 153.431 26.6255H152.763L151.514 35.955H152.182C152.825 35.955 153.193 35.6008 153.289 34.8953ZM171.783 45.4981L174.623 24.2925H169.426L165.857 34.8649H165.672L167.088 24.2925H161.891L159.051 45.4981H164.248L167.817 34.9256H168.003L166.587 45.4981H171.783ZM186.525 41.7112C186.381 42.7805 186.086 43.5991 185.639 44.1655C184.925 45.0543 183.765 45.4981 182.157 45.4981H173.992L176.832 24.2925H188.34L188.026 26.6255H181.716L180.892 32.7744H183.862C185.471 32.7744 186.511 33.2182 186.987 34.107C187.285 34.6527 187.361 35.4699 187.216 36.56L186.525 41.7112ZM181.276 42.1053L182.07 36.1672C182.166 35.4603 181.891 35.1061 181.248 35.1061H180.58L179.501 43.1636H180.169C180.812 43.165 181.18 42.8109 181.276 42.1053ZM200.761 41.7112C200.617 42.7805 200.322 43.5991 199.875 44.1655C199.161 45.0543 198.001 45.4981 196.393 45.4981H192.086C190.478 45.4981 189.437 45.0543 188.96 44.1655C188.662 43.6198 188.587 42.8026 188.733 41.7112L190.558 28.0794C190.702 27.0086 190.997 26.1901 191.444 25.625C192.156 24.7362 193.317 24.2925 194.926 24.2925H199.232C200.841 24.2925 201.882 24.7376 202.357 25.625C202.655 26.1708 202.731 26.9879 202.585 28.0794L200.761 41.7112ZM195.461 42.4677L197.491 27.3214C197.553 26.857 197.312 26.6255 196.768 26.6255C196.546 26.6255 196.347 26.6751 196.172 26.7771C195.998 26.8777 195.893 27.0596 195.858 27.3228L193.829 42.4691C193.767 42.9335 194.007 43.165 194.552 43.165C194.849 43.165 195.07 43.0837 195.216 42.9225C195.362 42.7612 195.444 42.6097 195.461 42.4677ZM215.961 34.5011L216.822 28.0794C216.967 26.9879 216.891 26.1708 216.594 25.625C216.118 24.7362 215.076 24.2925 213.469 24.2925H205.302L202.461 45.4981H207.659L208.624 38.2881H211.593C213.201 38.2881 214.361 37.8443 215.075 36.9555C215.522 36.3891 215.817 35.5719 215.961 34.5011ZM210.711 34.8953C210.618 35.6022 210.248 35.955 209.605 35.955H208.937L210.186 26.6255H210.854C211.498 26.6255 211.771 26.9783 211.677 27.6866L210.711 34.8953Z" fill="#B90000"/>
</g>
<defs>
<clipPath id="clip0_137_267">
<rect width="228.554" height="70" fill="white"/>
</clipPath>
</defs>
</svg>
