<svg width="758" height="360" viewBox="0 0 758 360" fill="none" xmlns="http://www.w3.org/2000/svg">
<path opacity="0.05" d="M680.595 290.546L680.381 287.005C680.061 281.41 679.553 275.814 678.912 270.354C673.488 224.638 657.419 180.876 632.026 142.663C606.633 104.451 572.641 72.8792 532.842 50.5417C493.043 28.2043 448.572 15.7387 403.085 14.1692C357.598 12.5996 312.391 21.971 271.18 41.5132L254 49.6224L350.589 159.258L358.819 157.285C378.079 152.661 398.054 151.944 417.59 155.173C437.126 158.403 455.836 165.516 472.64 176.102C489.443 186.688 504.007 200.536 515.491 216.848C526.975 233.16 535.15 251.612 539.546 271.138C540.698 276.133 541.59 281.185 542.218 286.275L542.725 290.492H466.309L612.141 456L758 290.492L680.595 290.546ZM612.088 407.372L537.702 322.928H575.296V304.872C575.296 278.019 569.487 251.492 558.276 227.151C547.066 202.811 530.726 181.247 510.403 163.974C490.08 146.701 466.266 134.136 440.634 127.162C415.001 120.189 388.171 118.974 362.025 123.605L307.251 61.4347C343.404 48.3142 382.016 43.6116 420.214 47.6769C458.412 51.7422 495.212 64.4707 527.874 84.915C560.537 105.359 588.221 132.993 608.866 165.759C629.511 198.525 642.586 235.58 647.116 274.165C648.304 284.357 648.902 294.61 648.906 304.872V322.928H686.5L612.088 407.372Z" fill="white"/>
<path opacity="0.05" d="M407.369 295.829L399.165 297.8C387.839 300.487 376.245 301.846 364.612 301.852C330.326 301.986 297.055 290.103 270.466 268.225C240.115 243.587 220.509 207.921 215.843 168.86L215.336 164.754H291.764L175.946 33.356L146.443 0L135.941 10.6145L0 164.754H77.4973L77.7111 168.266C78.0585 173.883 78.5396 179.501 79.1809 184.93C81.3361 203.496 85.2467 221.811 90.859 239.623C109.268 297.517 145.258 348.077 193.717 384.121C235.424 415.246 284.674 434.407 336.266 439.579C387.857 444.752 439.873 435.743 486.817 413.506L504 405.404L407.369 295.829ZM364.612 408.618C302.064 408.68 241.67 385.531 194.892 343.565C148.114 301.6 118.207 243.737 110.848 180.96C109.67 170.776 109.081 160.531 109.084 150.278V132.344H71.4579L145.882 47.9408L220.306 132.344H182.707V150.413C182.714 199.17 201.881 245.929 235.993 280.406C270.105 314.883 316.37 334.255 364.612 334.262C375.109 334.27 385.587 333.366 395.931 331.561L450.741 393.682C423.097 403.639 393.958 408.692 364.612 408.618Z" fill="white"/>
</svg>
