<svg width="36" height="40" viewBox="0 0 36 40" fill="none" xmlns="http://www.w3.org/2000/svg">
<path fill-rule="evenodd" clip-rule="evenodd" d="M21.5953 35.6409C29.8137 33.9749 36 26.7099 36 18C36 8.05887 27.9411 0 18 0C8.05887 0 0 8.05887 0 18C0 26.7099 6.18627 33.9749 14.4047 35.6409L18 40L21.5953 35.6409Z" fill="#36A3EB"/>
<path d="M27.5427 19.7594L27.5359 19.6472C27.5257 19.47 27.5096 19.2928 27.4893 19.1198C27.3171 17.6718 26.807 16.2856 26.0008 15.0753C25.1947 13.865 24.1156 12.865 22.8521 12.1574C21.5887 11.4499 20.1769 11.0551 18.7329 11.0054C17.2888 10.9556 15.8537 11.2525 14.5454 11.8715L14 12.1283L17.0663 15.6009L17.3276 15.5384C17.939 15.392 18.5731 15.3693 19.1933 15.4716C19.8135 15.5739 20.4075 15.7992 20.9409 16.1345C21.4744 16.4697 21.9367 16.9084 22.3013 17.4251C22.6659 17.9417 22.9254 18.5262 23.0649 19.1446C23.1015 19.3028 23.1298 19.4629 23.1498 19.6241L23.1659 19.7577H20.74L25.3696 25L30 19.7577L27.5427 19.7594ZM25.3679 23.4597L23.0064 20.7851H24.1999V20.2131C24.1999 19.3626 24.0154 18.5224 23.6596 17.7514C23.3037 16.9804 22.7849 16.2974 22.1398 15.7503C21.4946 15.2032 20.7386 14.8052 19.9249 14.5843C19.1111 14.3634 18.2594 14.325 17.4294 14.4717L15.6905 12.5025C16.8382 12.0869 18.064 11.9379 19.2766 12.0667C20.4893 12.1955 21.6575 12.5986 22.6944 13.2462C23.7313 13.8937 24.6102 14.769 25.2656 15.8068C25.921 16.8447 26.3361 18.0184 26.4799 19.2405C26.5176 19.5633 26.5366 19.8881 26.5367 20.2131V20.7851H27.7302L25.3679 23.4597Z" fill="white"/>
<path d="M18.9323 20.3914L18.6719 20.454C18.3124 20.5393 17.9443 20.5824 17.575 20.5826C16.4865 20.5869 15.4303 20.2096 14.5862 19.5151C13.6227 18.7329 13.0003 17.6007 12.8522 16.3606L12.8361 16.2303H15.2624L11.5856 12.0589L10.649 11L10.3156 11.337L6 16.2303H8.46023L8.46702 16.3418C8.47805 16.5201 8.49332 16.6985 8.51368 16.8708C8.5821 17.4602 8.70624 18.0416 8.88441 18.6071C9.46882 20.445 10.6114 22.0501 12.1497 23.1943C13.4738 24.1824 15.0373 24.7907 16.6751 24.9549C18.3129 25.1191 19.9642 24.8331 21.4545 24.1272L22 23.87L18.9323 20.3914ZM17.575 23.972C15.5893 23.974 13.6721 23.2391 12.187 21.9068C10.702 20.5746 9.75261 18.7377 9.51898 16.7448C9.48159 16.4215 9.46289 16.0962 9.46299 15.7707V15.2014H8.2685L10.6312 12.5219L12.9938 15.2014H11.8002V15.775C11.8004 17.3229 12.4089 18.8073 13.4918 19.9018C14.5748 20.9963 16.0435 21.6113 17.575 21.6115C17.9082 21.6117 18.2409 21.5831 18.5692 21.5258L20.3092 23.4978C19.4317 23.8139 18.5066 23.9744 17.575 23.972Z" fill="white"/>
</svg>
