<svg width="303" height="70" viewBox="0 0 303 70" fill="none" xmlns="http://www.w3.org/2000/svg">
<path fill-rule="evenodd" clip-rule="evenodd" d="M108.557 42.5442V54.9671H97.5049V42.5442V14.175V13.9887H113.387C121.338 13.9887 127.785 20.4241 127.785 28.3614C127.785 36.2987 121.342 42.7342 113.387 42.7342C111.803 42.7342 110.212 42.5496 108.557 42.5496V42.5442ZM108.557 22.9887V33.7324C109.798 33.7395 111.037 33.7413 112.274 33.7413C115.248 33.7413 117.66 31.3345 117.66 28.365C117.66 25.3955 115.248 22.9887 112.274 22.9887H108.557ZM151.42 23.451C145.597 23.451 140.877 28.4331 140.877 34.5765C140.877 40.7216 145.597 45.7019 151.42 45.7019C157.242 45.7019 161.962 40.7216 161.962 34.5765C161.962 28.4331 157.242 23.451 151.42 23.451ZM151.42 13.0675C163.346 13.0675 173.018 22.6983 173.018 34.5729C173.018 46.451 163.353 56.0782 151.42 56.0782C139.495 56.0782 129.821 46.4474 129.821 34.5729C129.821 22.6947 139.489 13.0675 151.42 13.0675ZM197.115 13.0675C203.266 13.0675 208.814 15.6284 212.745 19.7378L206.884 27.8704C204.3 25.8023 200.858 23.451 197.115 23.451C191.293 23.451 186.573 28.4331 186.573 34.5765C186.573 40.7216 191.293 45.7001 197.115 45.7001C201.975 45.7001 204.209 43.1607 206.93 40.6266L214.083 47.8775C210.13 52.8757 203.998 56.0836 197.115 56.0836C185.187 56.0836 175.517 46.4546 175.517 34.5782C175.517 22.6983 185.183 13.0729 197.115 13.0729" fill="#2D2D2D"/>
<path fill-rule="evenodd" clip-rule="evenodd" d="M233.661 48.5838L228.367 34.5694L227.022 54.8741H216.842L219.643 14.0856H229.948L238.584 34.4798L247.238 14.0856H257.543L260.326 54.8741H250.146L248.8 34.5694L243.521 48.5838H233.661Z" fill="#2D2D2D"/>
<path fill-rule="evenodd" clip-rule="evenodd" d="M283.828 37.5442H283.469H280.093L283.646 27.3274L286.734 37.5442H283.828ZM278.05 14.175L264.213 54.8722L275.233 54.8686L277.774 46.7163H289.058L291.598 54.8686L302.618 54.8722L288.779 14.175H278.05Z" fill="#2D2D2D"/>
<path fill-rule="evenodd" clip-rule="evenodd" d="M29.9519 21.5761C20.0217 21.5761 12.8362 29.5562 12.8362 38.6738C12.8362 47.6326 20.0882 55.7618 29.9519 55.7618C33.0806 55.7618 35.1373 55.0532 37.7371 53.9026L46.4722 62.6327C40.5027 66.5602 35.1166 67.7609 29.9399 67.7609C13.1187 67.7609 0.805664 53.6838 0.805664 38.6782C0.805664 23.653 12.8341 9.59117 29.9454 9.59117V0L45.5518 15.588L29.9454 31.1727V21.5804" fill="#2747CD"/>
<path fill-rule="evenodd" clip-rule="evenodd" d="M46.2549 21.8863L52.4708 15.5847L46.1382 9.28308H50.389C61.1012 9.28308 69.4186 17.9566 69.4186 28.2749C69.4186 37.6277 63.0827 44.331 55.9768 46.5505L67.3848 57.928C66.1078 62.5075 64.5516 66.1073 62.0172 70C62.0172 70 36.1 44.1361 30.6387 38.6716L34.6518 34.6505H50.389C53.9147 34.6505 56.7795 31.779 56.7795 28.2608C56.7795 24.7568 53.9147 21.883 50.389 21.883H46.2549" fill="#FF0023"/>
</svg>
