<svg width="20" height="20" viewBox="0 0 20 20" fill="none" xmlns="http://www.w3.org/2000/svg">
<path d="M17.7543 12.3264L16.2751 10.8472L9.61902 4.19141C8.39231 2.97389 6.41215 2.97756 5.19004 4.19968C3.96792 5.4218 3.96425 7.40195 5.18177 8.62866L11.8376 15.2865C12.1098 15.5588 12.5514 15.5588 12.8237 15.2865C13.096 15.0141 13.096 14.5727 12.8237 14.3003L6.16794 7.64249C5.48722 6.96177 5.48722 5.85831 6.16794 5.17759C6.84867 4.49686 7.95212 4.49686 8.63284 5.17759L15.2906 11.8334L16.7698 13.3124C17.9953 14.5384 17.9948 16.5256 16.7691 17.7509C15.5431 18.9762 13.5561 18.9759 12.3306 17.75L11.0982 16.5171L4.19575 9.61469L3.70258 9.12167C1.97888 7.34408 2.00078 4.51218 3.75158 2.76122C5.50253 1.01042 8.33444 0.988526 10.112 2.71223L17.5075 10.1078C17.6837 10.2839 17.9405 10.3527 18.181 10.2882C18.4217 10.2238 18.6097 10.0359 18.6742 9.7952C18.7386 9.55451 18.6698 9.2979 18.4937 9.12167L11.0982 1.7262C8.78213 -0.57931 5.03693 -0.575023 2.72621 1.73585C0.415333 4.04657 0.411046 7.79177 2.71656 10.1078L10.112 17.5033L11.3462 18.7362C13.1261 20.4458 15.9469 20.4173 17.6917 18.6718C19.4367 16.9266 19.4644 14.1058 17.7543 12.3264Z" fill="#36A3EB"/>
</svg>
