<svg width="69" height="80" viewBox="0 0 69 80" fill="none" xmlns="http://www.w3.org/2000/svg">
<path d="M17.6172 17.3965H22.9258C24.2207 17.3965 25.293 17.8037 26.1426 18.6182C26.998 19.4268 27.4258 20.4316 27.4258 21.6328C27.4258 22.8281 27.001 23.833 26.1514 24.6475C25.3018 25.4561 24.2266 25.8604 22.9258 25.8604H20.3242V30H17.6172V17.3965ZM22.8379 19.8311H20.3242V23.4258H22.8379C23.377 23.4258 23.8252 23.2529 24.1826 22.9072C24.5459 22.5615 24.7275 22.1367 24.7275 21.6328C24.7275 21.1289 24.5459 20.7041 24.1826 20.3584C23.8252 20.0068 23.377 19.8311 22.8379 19.8311ZM29.8516 17.3965H34.5361C36.3701 17.3965 37.9082 18.0059 39.1504 19.2246C40.3926 20.4434 41.0137 21.9346 41.0137 23.6982C41.0137 25.4619 40.3926 26.9531 39.1504 28.1719C37.9082 29.3906 36.3701 30 34.5361 30H29.8516V17.3965ZM34.5361 19.8311H32.5586V27.5742H34.5361C35.5791 27.5742 36.4697 27.1992 37.208 26.4492C37.9463 25.6992 38.3154 24.7852 38.3154 23.707C38.3154 22.623 37.9551 21.7061 37.2344 20.9561C36.5137 20.2061 35.6143 19.8311 34.5361 19.8311ZM43.5273 17.3965H52.7998V19.8311H46.2344V22.6172H51.3584V25.0518H46.2344V30H43.5273V17.3965Z" fill="#F35F5F"/>
<rect x="1" y="1" width="67" height="78" rx="4" stroke="#F35F5F" stroke-width="2"/>
<path d="M35 48.5V66.5M35 66.5L30 61.5M35 66.5L40 61.5" stroke="#F35F5F" stroke-width="2"/>
</svg>
