<svg width="69" height="80" viewBox="0 0 69 80" fill="none" xmlns="http://www.w3.org/2000/svg">
<path d="M14.6172 17.3965H19.3018C21.1357 17.3965 22.6738 18.0059 23.916 19.2246C25.1582 20.4434 25.7793 21.9346 25.7793 23.6982C25.7793 25.4619 25.1582 26.9531 23.916 28.1719C22.6738 29.3906 21.1357 30 19.3018 30H14.6172V17.3965ZM19.3018 19.8311H17.3242V27.5742H19.3018C20.3447 27.5742 21.2354 27.1992 21.9736 26.4492C22.7119 25.6992 23.0811 24.7852 23.0811 23.707C23.0811 22.623 22.7207 21.7061 22 20.9561C21.2793 20.2061 20.3799 19.8311 19.3018 19.8311ZM31.5449 20.7627C30.7598 21.5596 30.3672 22.541 30.3672 23.707C30.3672 24.8672 30.7598 25.8457 31.5449 26.6426C32.3301 27.4395 33.2852 27.8379 34.4102 27.8379C35.541 27.8379 36.499 27.4395 37.2842 26.6426C38.0693 25.8457 38.4619 24.8672 38.4619 23.707C38.4619 22.541 38.0693 21.5596 37.2842 20.7627C36.499 19.96 35.541 19.5586 34.4102 19.5586C33.2852 19.5586 32.3301 19.96 31.5449 20.7627ZM29.5498 28.3477C28.2314 27.0586 27.5723 25.5088 27.5723 23.6982C27.5723 21.8877 28.2314 20.3408 29.5498 19.0576C30.874 17.7744 32.4941 17.1328 34.4102 17.1328C36.332 17.1328 37.9521 17.7744 39.2705 19.0576C40.5947 20.3408 41.2568 21.8877 41.2568 23.6982C41.2568 25.5088 40.5947 27.0586 39.2705 28.3477C37.9521 29.6309 36.332 30.2725 34.4102 30.2725C32.4941 30.2725 30.874 29.6309 29.5498 28.3477ZM49.9053 17.1328C50.5674 17.1328 51.1973 17.2207 51.7949 17.3965C52.3926 17.5664 52.8818 17.7744 53.2627 18.0205C53.6494 18.2666 53.9893 18.5127 54.2822 18.7588C54.5811 19.0049 54.7949 19.2129 54.9238 19.3828L55.126 19.6465L53.4121 21.3604C53.377 21.3135 53.3271 21.249 53.2627 21.167C53.2041 21.0791 53.0664 20.9326 52.8496 20.7275C52.6387 20.5225 52.4072 20.3438 52.1553 20.1914C51.9033 20.0332 51.5723 19.8896 51.1621 19.7607C50.752 19.626 50.333 19.5586 49.9053 19.5586C48.7275 19.5586 47.7432 19.9541 46.9521 20.7451C46.1611 21.5361 45.7656 22.5205 45.7656 23.6982C45.7656 24.876 46.1611 25.8604 46.9521 26.6514C47.7432 27.4424 48.7275 27.8379 49.9053 27.8379C50.3623 27.8379 50.7988 27.7764 51.2148 27.6533C51.6367 27.5244 51.9854 27.375 52.2607 27.2051C52.5361 27.0293 52.7793 26.8535 52.9902 26.6777C53.2012 26.502 53.3535 26.3496 53.4473 26.2207L53.5879 26.0361L55.2139 27.75C55.167 27.8203 55.0938 27.9141 54.9941 28.0312C54.9004 28.1426 54.6865 28.3447 54.3525 28.6377C54.0244 28.9248 53.6699 29.1797 53.2891 29.4023C52.9141 29.6191 52.4189 29.8184 51.8037 30C51.1943 30.1816 50.5615 30.2725 49.9053 30.2725C47.9834 30.2725 46.3604 29.6309 45.0361 28.3477C43.7178 27.0586 43.0586 25.5088 43.0586 23.6982C43.0586 21.8877 43.7178 20.3408 45.0361 19.0576C46.3604 17.7744 47.9834 17.1328 49.9053 17.1328Z" fill="#36A3EB"/>
<rect x="1" y="1" width="67" height="78" rx="4" stroke="#36A3EB" stroke-width="2"/>
<path d="M35 48.5V66.5M35 66.5L30 61.5M35 66.5L40 61.5" stroke="#36A3EB" stroke-width="2"/>
</svg>
