<svg width="17" height="16" viewBox="0 0 17 16" fill="none" xmlns="http://www.w3.org/2000/svg">
<path fill-rule="evenodd" clip-rule="evenodd" d="M2.62142 2.1578L5.59493 2.85825L6.90182 0.0955344C7.31054 0.032632 7.72924 0 8.15557 0C8.58189 0 9.0006 0.032632 9.40932 0.0955344L10.7162 2.85825L13.6897 2.15781C14.3062 2.72507 14.8353 3.38586 15.2545 4.11768L13.9093 6.86223L16.3111 8.75051C16.2515 9.60875 16.0594 10.4305 15.7552 11.1955L12.7697 11.8551L12.7909 14.9108C12.1064 15.3828 11.3464 15.7531 10.5327 16L8.15557 14.0772L5.77846 16C4.96475 15.7531 4.20474 15.3828 3.52023 14.9108L3.54145 11.8551L0.555985 11.1955C0.25173 10.4305 0.0596336 9.60875 0 8.75051L2.40186 6.86223L1.05659 4.11768C1.4758 3.38586 2.00491 2.72507 2.62142 2.1578Z" fill="#36A3EB"/>
<circle cx="8.15527" cy="8.17547" r="6.64258" fill="#36A3EB"/>
<circle cx="8.1552" cy="8.17549" r="2.04387" fill="white"/>
</svg>
