<svg width="65" height="68" viewBox="0 0 65 68" fill="none" xmlns="http://www.w3.org/2000/svg">
<path d="M27.3814 3.53104C29.9006 2.25967 31.1613 1.625 32.4199 1.625C33.6784 1.625 34.939 2.25967 37.4624 3.53104C40.8518 5.24197 57.0762 13.2913 60.1729 14.8297C63.2673 16.3681 63.3005 17.4546 63.2361 22.6161C62.6941 34.7097 58.1063 53.5484 39.7012 64.5247C36.8559 66.0383 34.6898 66.8044 32.4219 66.8044C30.1519 66.8044 27.9878 66.0383 25.1425 64.5247C6.73742 53.5463 2.14966 34.7097 1.60759 22.6161C1.54321 17.4526 1.57644 16.3681 4.67096 14.8297C7.76756 13.2892 23.9919 5.23992 27.3814 3.53104Z" stroke="white" stroke-width="2" stroke-miterlimit="10" stroke-linecap="round"/>
<path d="M32.4195 13.9078C31.6674 13.9078 30.914 14.2993 29.4083 15.0834C27.3827 16.1373 17.6861 21.1017 15.8354 22.0518C13.986 23.0006 13.9661 23.6694 14.0046 26.854C14.3286 34.3125 17.0705 45.9298 28.0703 52.7006C29.7708 53.6342 31.0642 54.1067 32.4208 54.1067C33.7763 54.1067 35.0708 53.6342 36.7713 52.7006C47.7712 45.9311 50.513 34.3125 50.837 26.854C50.8755 23.6706 50.8556 23.0006 49.0062 22.0518C47.1555 21.103 37.4589 16.1386 35.4333 15.0834C33.9252 14.2993 33.1718 13.9078 32.4195 13.9078Z" fill="#71C6FF" stroke="white" stroke-width="2" stroke-miterlimit="10" stroke-linecap="round"/>
<path d="M30.9448 39.3985L40.3511 29.5458" stroke="white" stroke-width="2" stroke-miterlimit="10" stroke-linecap="round"/>
<path d="M26.2566 35.0527L30.9461 39.3984" stroke="white" stroke-width="2" stroke-miterlimit="10" stroke-linecap="round"/>
</svg>
